<?xml version="1.0" encoding="utf-8"?>
<!-- Generator: Adobe Illustrator 19.0.0, SVG Export Plug-In . SVG Version: 6.00 Build 0)  -->
<svg version="1.1" xmlns="http://www.w3.org/2000/svg" xmlns:xlink="http://www.w3.org/1999/xlink" x="0px" y="0px"
	 viewBox="0 0 130 95" style="enable-background:new 0 0 130 95;" xml:space="preserve">
<style type="text/css">
	.st0{fill:#F78D28;}
	.st1{display:none;}
	.st2{display:inline;}
	.st3{fill:#F78E29;}
	.st4{clip-path:url(#XMLID_21_);fill:#FFFFFF;}
	.st5{clip-path:url(#XMLID_21_);fill:#D1D3D4;}
	.st6{clip-path:url(#XMLID_22_);fill:#F78C28;}
	.st7{clip-path:url(#XMLID_22_);fill:#FFFFFF;}
</style>
<g id="Layer_1">
	<polygon id="XMLID_1_" class="st0" points="112.9,15.5 100.2,19.6 100.1,19.7 100.1,19.6 84.8,7.1 18.4,6.8 34,14.9 34,15 
		3.4,15.9 54.7,33.5 54.7,33.5 60.9,50.5 15.2,85.2 38,74.9 38.1,74.9 24,89.8 96.5,53.1 96.5,53 121.2,27.4 121.2,27.4 121.3,27.3 
		126.7,25.7 	"/>
</g>
<g id="Layer_2" class="st1">
	<g id="XMLID_2_" class="st2">
		<polygon id="XMLID_7_" class="st3" points="13,21.4 13,86 54.3,86 57.8,89.6 72.2,89.6 75.8,86 117,86 117,21.4 		"/>
		<g>
			<defs>
				<rect id="XMLID_3_" x="13" y="5.4" width="104" height="84.2"/>
			</defs>
			<clipPath id="XMLID_21_">
				<use xlink:href="#XMLID_3_"  style="overflow:visible;"/>
			</clipPath>
			<path id="XMLID_6_" class="st4" d="M68.6,82.4H65V26.8c0-5.8,3.5-10.8,10.8-10.8H108v62.8H75.8C72.3,78.8,69.9,79.8,68.6,82.4"/>
			<path id="XMLID_5_" class="st5" d="M61.4,82.4H65V26.8c0-5.8-3.5-10.8-10.8-10.8H22v62.8h32.3C57.7,78.8,60.1,79.8,61.4,82.4"/>
			<path id="XMLID_4_" class="st4" d="M61.4,82.4H65V26.8c0-5.8-2.5-11.7-8.2-13.7L30.9,5.4v62.8l25.9,7.7
				C60,77.1,60.7,79.4,61.4,82.4"/>
		</g>
	</g>
</g>
<g id="Layer_3" class="st1">
	<g id="XMLID_18_" class="st2">
		<g id="XMLID_19_">
			<defs>
				<rect id="XMLID_8_" x="30.1" y="3.7" width="69.8" height="87.7"/>
			</defs>
			<clipPath id="XMLID_22_">
				<use xlink:href="#XMLID_8_"  style="overflow:visible;"/>
			</clipPath>
			<path id="XMLID_25_" class="st6" d="M99.5,72.2c-12.7,8.5-15.4,10.1-29,19.1c-13.5-9-27-17.8-40.5-26.8V53
				c2.7-2.7,5.5-5.4,8.6-8.4c0.6,0.1,1.5,0.2,2.7,0.4v-8.9C44.6,33,47.8,30,51,27c2.4,0.8,4.6,1.6,7.3,2.5V12
				c4.2-2.9,8.2-5.6,12.2-8.4c4.2,2.2,8.2,4.4,12.5,6.7v19.2c2.7-0.9,5-1.7,7.5-2.5c3.1,2.9,6.2,5.8,9.5,8.9v8.5L99.5,72.2z
				 M80.9,81.8v-70c-3.2-1.7-6.4-3.5-10-5.4v82.1C74.4,86.1,77.7,83.9,80.9,81.8 M51.6,29.5v46.6c2.2,1.5,4.4,2.9,6.8,4.5V32
				C56.2,31.2,54.1,30.5,51.6,29.5 M97.6,70.6V36.9c-2.3-2.1-4.6-4.4-7.1-6.7v45.2C93.1,73.7,95.3,72.2,97.6,70.6 M39.1,46.9v20.9
				c0.7,0.4,1.4,0.9,2.4,1.5V47.7C40.7,47.5,40,47.2,39.1,46.9"/>
			<path id="XMLID_12_" class="st7" d="M80.9,81.8c-3.2,2.1-6.4,4.2-10,6.6V6.4c3.5,1.9,6.8,3.7,10,5.4V81.8z"/>
			<path id="XMLID_11_" class="st7" d="M51.6,29.5c2.6,0.9,4.7,1.7,6.8,2.4v48.6c-2.5-1.6-4.6-3.1-6.8-4.5V29.5z"/>
			<path id="XMLID_10_" class="st7" d="M97.6,70.6c-2.4,1.6-4.6,3-7.1,4.7V30.2c2.5,2.4,4.8,4.6,7.1,6.7V70.6z"/>
			<path id="XMLID_9_" class="st7" d="M39.1,46.9c0.9,0.3,1.6,0.5,2.4,0.8v21.6c-1-0.6-1.7-1.1-2.4-1.5V46.9z"/>
		</g>
	</g>
</g>
<g id="Layer_4">
</g>
</svg>
